<?xml version="1.0" encoding="UTF-8" standalone="no"?>
<!-- Created with Inkscape (http://www.inkscape.org/) -->

<svg
   xmlns:dc="http://purl.org/dc/elements/1.1/"
   xmlns:cc="http://creativecommons.org/ns#"
   xmlns:rdf="http://www.w3.org/1999/02/22-rdf-syntax-ns#"
   xmlns:svg="http://www.w3.org/2000/svg"
   xmlns="http://www.w3.org/2000/svg"
   xmlns:sodipodi="http://sodipodi.sourceforge.net/DTD/sodipodi-0.dtd"
   xmlns:inkscape="http://www.inkscape.org/namespaces/inkscape"
   width="141.11111mm"
   height="115.43741mm"
   viewBox="0 0 500.00003 409.03018"
   id="svg2"
   version="1.1"
   inkscape:version="0.91 r13725"
   sodipodi:docname="outreach.svg">
  <defs
     id="defs4" />
  <sodipodi:namedview
     id="base"
     pagecolor="#ffffff"
     bordercolor="#666666"
     borderopacity="1.0"
     inkscape:pageopacity="0.0"
     inkscape:pageshadow="2"
     inkscape:zoom="0.35"
     inkscape:cx="892.24644"
     inkscape:cy="607.24506"
     inkscape:document-units="px"
     inkscape:current-layer="layer1"
     showgrid="false"
     showborder="false"
     inkscape:window-width="1255"
     inkscape:window-height="756"
     inkscape:window-x="0"
     inkscape:window-y="0"
     inkscape:window-maximized="1"
     inkscape:object-paths="true"
     inkscape:snap-intersection-paths="true"
     inkscape:object-nodes="true"
     inkscape:snap-smooth-nodes="true"
     inkscape:snap-midpoints="true"
     fit-margin-top="0"
     fit-margin-left="0"
     fit-margin-right="0"
     fit-margin-bottom="0" />
  <metadata
     id="metadata7">
    <rdf:RDF>
      <cc:Work
         rdf:about="">
        <dc:format>image/svg+xml</dc:format>
        <dc:type
           rdf:resource="http://purl.org/dc/dcmitype/StillImage" />
        <dc:title></dc:title>
      </cc:Work>
    </rdf:RDF>
  </metadata>
  <g
     inkscape:label="Layer 1"
     inkscape:groupmode="layer"
     id="layer1"
     transform="translate(573.42122,241.95736)">
    <g
       id="g4183"
       transform="matrix(0.42815261,0,0,0.42815261,-327.90943,95.540155)">
      <g
         id="g4267"
         transform="matrix(0.95468549,0,0,0.95468549,-224.82225,-388.18793)"
         style="fill:#95ab34;fill-opacity:0.94117647">
        <g
           id="g4269"
           style="fill:#95ab34;fill-opacity:0.94117647">
          <rect
             rx="25.714285"
             ry="32.324879"
             y="-15.494936"
             x="285.83112"
             height="154.28572"
             width="51.42857"
             id="rect4271"
             style="fill:#95ab34;fill-opacity:0.94117647;stroke:none;stroke-width:1;stroke-miterlimit:4;stroke-dasharray:none;stroke-opacity:1" />
          <rect
             style="fill:#95ab34;fill-opacity:0.94117647;stroke:none;stroke-width:1;stroke-miterlimit:4;stroke-dasharray:none;stroke-opacity:1"
             id="rect4273"
             width="51.42857"
             height="154.28572"
             x="220.11684"
             y="-15.494936"
             ry="32.324879"
             rx="25.714285" />
        </g>
        <circle
           style="fill:#95ab34;fill-opacity:0.94117647;stroke:none;stroke-width:1;stroke-miterlimit:4;stroke-dasharray:none;stroke-opacity:1"
           id="circle4275"
           cx="280"
           cy="-339.06638"
           r="80.000008" />
        <rect
           rx="25.714285"
           ry="32.324879"
           y="-201.92351"
           x="131.02757"
           height="154.28572"
           width="51.42857"
           id="rect4277"
           style="fill:#95ab34;fill-opacity:0.94117647;stroke:none;stroke-width:1;stroke-miterlimit:4;stroke-dasharray:none;stroke-opacity:1" />
        <rect
           style="fill:#95ab34;fill-opacity:0.94117647;stroke:none;stroke-width:1;stroke-miterlimit:4;stroke-dasharray:none;stroke-opacity:1"
           id="rect4279"
           width="51.42857"
           height="154.28572"
           x="381.54541"
           y="-201.92351"
           ry="32.324879"
           rx="25.714285" />
        <path
           d="m 346.20782,-268.6437 a 80.000008,80.000008 0 0 1 -64.20703,32.4336 80.000008,80.000008 0 0 1 -64.21094,-32.42969 c -9.86473,11.87241 -15.78906,27.14688 -15.78906,43.85938 l 0,182.857419 c 0,37.9885724 30.5837,68.570312 68.57227,68.570312 l 22.85546,0 c 37.98857,0 68.57227,-30.5817396 68.57227,-68.570312 l 0,-182.857419 c 0,-16.71449 -5.92612,-31.99028 -15.79297,-43.86329 z M 311.5454,-15.494936 c 14.24571,0 25.71429,14.4168959 25.71429,32.324879 l 0,89.635967 c 0,17.90798 -11.46858,32.32487 -25.71429,32.32487 -14.24571,0 -25.71428,-14.41689 -25.71428,-32.32487 l 0,-89.635967 c 0,-17.9079831 11.46857,-32.324879 25.71428,-32.324879 z m -65.71428,0 c 14.24572,0 25.71429,14.4168959 25.71429,32.324879 l 0,89.635967 c 0,17.90798 -11.46857,32.32487 -25.71429,32.32487 -14.24571,0 -25.71428,-14.41689 -25.71428,-32.32487 l 0,-89.635967 c 0,-17.9079831 11.46857,-32.324879 25.71428,-32.324879 z"
           style="fill:#95ab34;fill-opacity:0.94117647;stroke:none;stroke-width:1;stroke-miterlimit:4;stroke-dasharray:none;stroke-opacity:1"
           id="path4281"
           inkscape:connector-curvature="0" />
      </g>
      <g
         style="fill:#d28c29;fill-opacity:0.94117647"
         transform="matrix(0.95468549,0,0,0.95468549,-305.63446,-226.56352)"
         id="g4283">
        <g
           style="fill:#d28c29;fill-opacity:0.94117647"
           id="g4285">
          <rect
             style="fill:#d28c29;fill-opacity:0.94117647;stroke:none;stroke-width:1;stroke-miterlimit:4;stroke-dasharray:none;stroke-opacity:1"
             id="rect4287"
             width="51.42857"
             height="154.28572"
             x="285.83112"
             y="-15.494936"
             ry="32.324879"
             rx="25.714285" />
          <rect
             rx="25.714285"
             ry="32.324879"
             y="-15.494936"
             x="220.11684"
             height="154.28572"
             width="51.42857"
             id="rect4289"
             style="fill:#d28c29;fill-opacity:0.94117647;stroke:none;stroke-width:1;stroke-miterlimit:4;stroke-dasharray:none;stroke-opacity:1" />
        </g>
        <circle
           r="80.000008"
           cy="-339.06638"
           cx="280"
           id="circle4291"
           style="fill:#d28c29;fill-opacity:0.94117647;stroke:none;stroke-width:1;stroke-miterlimit:4;stroke-dasharray:none;stroke-opacity:1" />
        <rect
           style="fill:#d28c29;fill-opacity:0.94117647;stroke:none;stroke-width:1;stroke-miterlimit:4;stroke-dasharray:none;stroke-opacity:1"
           id="rect4293"
           width="51.42857"
           height="154.28572"
           x="131.02757"
           y="-201.92351"
           ry="32.324879"
           rx="25.714285" />
        <rect
           rx="25.714285"
           ry="32.324879"
           y="-201.92351"
           x="381.54541"
           height="154.28572"
           width="51.42857"
           id="rect4295"
           style="fill:#d28c29;fill-opacity:0.94117647;stroke:none;stroke-width:1;stroke-miterlimit:4;stroke-dasharray:none;stroke-opacity:1" />
        <path
           inkscape:connector-curvature="0"
           id="path4297"
           style="fill:#d28c29;fill-opacity:0.94117647;stroke:none;stroke-width:1;stroke-miterlimit:4;stroke-dasharray:none;stroke-opacity:1"
           d="m 346.20782,-268.6437 a 80.000008,80.000008 0 0 1 -64.20703,32.4336 80.000008,80.000008 0 0 1 -64.21094,-32.42969 c -9.86473,11.87241 -15.78906,27.14688 -15.78906,43.85938 l 0,182.857419 c 0,37.9885724 30.5837,68.570312 68.57227,68.570312 l 22.85546,0 c 37.98857,0 68.57227,-30.5817396 68.57227,-68.570312 l 0,-182.857419 c 0,-16.71449 -5.92612,-31.99028 -15.79297,-43.86329 z M 311.5454,-15.494936 c 14.24571,0 25.71429,14.4168959 25.71429,32.324879 l 0,89.635967 c 0,17.90798 -11.46858,32.32487 -25.71429,32.32487 -14.24571,0 -25.71428,-14.41689 -25.71428,-32.32487 l 0,-89.635967 c 0,-17.9079831 11.46857,-32.324879 25.71428,-32.324879 z m -65.71428,0 c 14.24572,0 25.71429,14.4168959 25.71429,32.324879 l 0,89.635967 c 0,17.90798 -11.46857,32.32487 -25.71429,32.32487 -14.24571,0 -25.71428,-14.41689 -25.71428,-32.32487 l 0,-89.635967 c 0,-17.9079831 11.46857,-32.324879 25.71428,-32.324879 z" />
      </g>
      <g
         id="g4235"
         transform="matrix(0.62150331,0,0,0.62150331,170.99445,-289.41738)"
         style="fill:#871e29;fill-opacity:0.94117647">
        <g
           id="g4237"
           style="fill:#871e29;fill-opacity:0.94117647">
          <rect
             rx="25.714285"
             ry="32.324879"
             y="-15.494936"
             x="285.83112"
             height="154.28572"
             width="51.42857"
             id="rect4239"
             style="fill:#871e29;fill-opacity:0.94117647;stroke:none;stroke-width:1;stroke-miterlimit:4;stroke-dasharray:none;stroke-opacity:1" />
          <rect
             style="fill:#871e29;fill-opacity:0.94117647;stroke:none;stroke-width:1;stroke-miterlimit:4;stroke-dasharray:none;stroke-opacity:1"
             id="rect4241"
             width="51.42857"
             height="154.28572"
             x="220.11684"
             y="-15.494936"
             ry="32.324879"
             rx="25.714285" />
        </g>
        <circle
           style="fill:#871e29;fill-opacity:0.94117647;stroke:none;stroke-width:1;stroke-miterlimit:4;stroke-dasharray:none;stroke-opacity:1"
           id="circle4243"
           cx="280"
           cy="-339.06638"
           r="80.000008" />
        <rect
           rx="25.714285"
           ry="32.324879"
           y="-201.92351"
           x="131.02757"
           height="154.28572"
           width="51.42857"
           id="rect4245"
           style="fill:#871e29;fill-opacity:0.94117647;stroke:none;stroke-width:1;stroke-miterlimit:4;stroke-dasharray:none;stroke-opacity:1" />
        <rect
           style="fill:#871e29;fill-opacity:0.94117647;stroke:none;stroke-width:1;stroke-miterlimit:4;stroke-dasharray:none;stroke-opacity:1"
           id="rect4247"
           width="51.42857"
           height="154.28572"
           x="381.54541"
           y="-201.92351"
           ry="32.324879"
           rx="25.714285" />
        <path
           d="m 346.20782,-268.6437 a 80.000008,80.000008 0 0 1 -64.20703,32.4336 80.000008,80.000008 0 0 1 -64.21094,-32.42969 c -9.86473,11.87241 -15.78906,27.14688 -15.78906,43.85938 l 0,182.857419 c 0,37.9885724 30.5837,68.570312 68.57227,68.570312 l 22.85546,0 c 37.98857,0 68.57227,-30.5817396 68.57227,-68.570312 l 0,-182.857419 c 0,-16.71449 -5.92612,-31.99028 -15.79297,-43.86329 z M 311.5454,-15.494936 c 14.24571,0 25.71429,14.4168959 25.71429,32.324879 l 0,89.635967 c 0,17.90798 -11.46858,32.32487 -25.71429,32.32487 -14.24571,0 -25.71428,-14.41689 -25.71428,-32.32487 l 0,-89.635967 c 0,-17.9079831 11.46857,-32.324879 25.71428,-32.324879 z m -65.71428,0 c 14.24572,0 25.71429,14.4168959 25.71429,32.324879 l 0,89.635967 c 0,17.90798 -11.46857,32.32487 -25.71429,32.32487 -14.24571,0 -25.71428,-14.41689 -25.71428,-32.32487 l 0,-89.635967 c 0,-17.9079831 11.46857,-32.324879 25.71428,-32.324879 z"
           style="fill:#871e29;fill-opacity:0.94117647;stroke:none;stroke-width:1;stroke-miterlimit:4;stroke-dasharray:none;stroke-opacity:1"
           id="path4249"
           inkscape:connector-curvature="0" />
      </g>
      <g
         style="fill:#838383;fill-opacity:0.94117647"
         transform="matrix(0.62150331,0,0,0.62150331,45.735533,-491.44789)"
         id="g4251">
        <g
           style="fill:#838383;fill-opacity:0.94117647"
           id="g4253">
          <rect
             style="fill:#838383;fill-opacity:0.94117647;stroke:none;stroke-width:1;stroke-miterlimit:4;stroke-dasharray:none;stroke-opacity:1"
             id="rect4255"
             width="51.42857"
             height="154.28572"
             x="285.83112"
             y="-15.494936"
             ry="32.324879"
             rx="25.714285" />
          <rect
             rx="25.714285"
             ry="32.324879"
             y="-15.494936"
             x="220.11684"
             height="154.28572"
             width="51.42857"
             id="rect4257"
             style="fill:#838383;fill-opacity:0.94117647;stroke:none;stroke-width:1;stroke-miterlimit:4;stroke-dasharray:none;stroke-opacity:1" />
        </g>
        <circle
           r="80.000008"
           cy="-339.06638"
           cx="280"
           id="circle4259"
           style="fill:#838383;fill-opacity:0.94117647;stroke:none;stroke-width:1;stroke-miterlimit:4;stroke-dasharray:none;stroke-opacity:1" />
        <rect
           style="fill:#838383;fill-opacity:0.94117647;stroke:none;stroke-width:1;stroke-miterlimit:4;stroke-dasharray:none;stroke-opacity:1"
           id="rect4261"
           width="51.42857"
           height="154.28572"
           x="131.02757"
           y="-201.92351"
           ry="32.324879"
           rx="25.714285" />
        <rect
           rx="25.714285"
           ry="32.324879"
           y="-201.92351"
           x="381.54541"
           height="154.28572"
           width="51.42857"
           id="rect4263"
           style="fill:#838383;fill-opacity:0.94117647;stroke:none;stroke-width:1;stroke-miterlimit:4;stroke-dasharray:none;stroke-opacity:1" />
        <path
           inkscape:connector-curvature="0"
           id="path4265"
           style="fill:#838383;fill-opacity:0.94117647;stroke:none;stroke-width:1;stroke-miterlimit:4;stroke-dasharray:none;stroke-opacity:1"
           d="m 346.20782,-268.6437 a 80.000008,80.000008 0 0 1 -64.20703,32.4336 80.000008,80.000008 0 0 1 -64.21094,-32.42969 c -9.86473,11.87241 -15.78906,27.14688 -15.78906,43.85938 l 0,182.857419 c 0,37.9885724 30.5837,68.570312 68.57227,68.570312 l 22.85546,0 c 37.98857,0 68.57227,-30.5817396 68.57227,-68.570312 l 0,-182.857419 c 0,-16.71449 -5.92612,-31.99028 -15.79297,-43.86329 z M 311.5454,-15.494936 c 14.24571,0 25.71429,14.4168959 25.71429,32.324879 l 0,89.635967 c 0,17.90798 -11.46858,32.32487 -25.71429,32.32487 -14.24571,0 -25.71428,-14.41689 -25.71428,-32.32487 l 0,-89.635967 c 0,-17.9079831 11.46857,-32.324879 25.71428,-32.324879 z m -65.71428,0 c 14.24572,0 25.71429,14.4168959 25.71429,32.324879 l 0,89.635967 c 0,17.90798 -11.46857,32.32487 -25.71429,32.32487 -14.24571,0 -25.71428,-14.41689 -25.71428,-32.32487 l 0,-89.635967 c 0,-17.9079831 11.46857,-32.324879 25.71428,-32.324879 z" />
      </g>
      <g
         style="fill:#295657;fill-opacity:0.94117647"
         transform="matrix(0.62150331,0,0,0.62150331,29.573094,-208.60518)"
         id="g4299">
        <g
           style="fill:#295657;fill-opacity:0.94117647"
           id="g4301">
          <rect
             style="fill:#295657;fill-opacity:0.94117647;stroke:none;stroke-width:1;stroke-miterlimit:4;stroke-dasharray:none;stroke-opacity:1"
             id="rect4303"
             width="51.42857"
             height="154.28572"
             x="285.83112"
             y="-15.494936"
             ry="32.324879"
             rx="25.714285" />
          <rect
             rx="25.714285"
             ry="32.324879"
             y="-15.494936"
             x="220.11684"
             height="154.28572"
             width="51.42857"
             id="rect4305"
             style="fill:#295657;fill-opacity:0.94117647;stroke:none;stroke-width:1;stroke-miterlimit:4;stroke-dasharray:none;stroke-opacity:1" />
        </g>
        <circle
           r="80.000008"
           cy="-339.06638"
           cx="280"
           id="circle4307"
           style="fill:#295657;fill-opacity:0.94117647;stroke:none;stroke-width:1;stroke-miterlimit:4;stroke-dasharray:none;stroke-opacity:1" />
        <rect
           style="fill:#295657;fill-opacity:0.94117647;stroke:none;stroke-width:1;stroke-miterlimit:4;stroke-dasharray:none;stroke-opacity:1"
           id="rect4309"
           width="51.42857"
           height="154.28572"
           x="131.02757"
           y="-201.92351"
           ry="32.324879"
           rx="25.714285" />
        <rect
           rx="25.714285"
           ry="32.324879"
           y="-201.92351"
           x="381.54541"
           height="154.28572"
           width="51.42857"
           id="rect4311"
           style="fill:#295657;fill-opacity:0.94117647;stroke:none;stroke-width:1;stroke-miterlimit:4;stroke-dasharray:none;stroke-opacity:1" />
        <path
           inkscape:connector-curvature="0"
           id="path4313"
           style="fill:#295657;fill-opacity:0.94117647;stroke:none;stroke-width:1;stroke-miterlimit:4;stroke-dasharray:none;stroke-opacity:1"
           d="m 346.20782,-268.6437 a 80.000008,80.000008 0 0 1 -64.20703,32.4336 80.000008,80.000008 0 0 1 -64.21094,-32.42969 c -9.86473,11.87241 -15.78906,27.14688 -15.78906,43.85938 l 0,182.857419 c 0,37.9885724 30.5837,68.570312 68.57227,68.570312 l 22.85546,0 c 37.98857,0 68.57227,-30.5817396 68.57227,-68.570312 l 0,-182.857419 c 0,-16.71449 -5.92612,-31.99028 -15.79297,-43.86329 z M 311.5454,-15.494936 c 14.24571,0 25.71429,14.4168959 25.71429,32.324879 l 0,89.635967 c 0,17.90798 -11.46858,32.32487 -25.71429,32.32487 -14.24571,0 -25.71428,-14.41689 -25.71428,-32.32487 l 0,-89.635967 c 0,-17.9079831 11.46857,-32.324879 25.71428,-32.324879 z m -65.71428,0 c 14.24572,0 25.71429,14.4168959 25.71429,32.324879 l 0,89.635967 c 0,17.90798 -11.46857,32.32487 -25.71429,32.32487 -14.24571,0 -25.71428,-14.41689 -25.71428,-32.32487 l 0,-89.635967 c 0,-17.9079831 11.46857,-32.324879 25.71428,-32.324879 z" />
      </g>
      <g
         style="fill:#1e6d87;fill-opacity:0.94117647"
         transform="translate(-214.15234,-143.44166)"
         id="g4203">
        <g
           style="fill:#1e6d87;fill-opacity:0.94117647"
           id="g4193">
          <rect
             style="fill:#1e6d87;fill-opacity:0.94117647;stroke:none;stroke-width:1;stroke-miterlimit:4;stroke-dasharray:none;stroke-opacity:1"
             id="rect4188"
             width="51.42857"
             height="154.28572"
             x="285.83112"
             y="-15.494936"
             ry="32.324879"
             rx="25.714285" />
          <rect
             rx="25.714285"
             ry="32.324879"
             y="-15.494936"
             x="220.11684"
             height="154.28572"
             width="51.42857"
             id="rect4190"
             style="fill:#1e6d87;fill-opacity:0.94117647;stroke:none;stroke-width:1;stroke-miterlimit:4;stroke-dasharray:none;stroke-opacity:1" />
        </g>
        <circle
           r="80.000008"
           cy="-339.06638"
           cx="280"
           id="circle4140"
           style="fill:#1e6d87;fill-opacity:0.94117647;stroke:none;stroke-width:1;stroke-miterlimit:4;stroke-dasharray:none;stroke-opacity:1" />
        <rect
           style="fill:#1e6d87;fill-opacity:0.94117647;stroke:none;stroke-width:1;stroke-miterlimit:4;stroke-dasharray:none;stroke-opacity:1"
           id="rect4161"
           width="51.42857"
           height="154.28572"
           x="131.02757"
           y="-201.92351"
           ry="32.324879"
           rx="25.714285" />
        <rect
           rx="25.714285"
           ry="32.324879"
           y="-201.92351"
           x="381.54541"
           height="154.28572"
           width="51.42857"
           id="rect4163"
           style="fill:#1e6d87;fill-opacity:0.94117647;stroke:none;stroke-width:1;stroke-miterlimit:4;stroke-dasharray:none;stroke-opacity:1" />
        <path
           inkscape:connector-curvature="0"
           id="rect4138"
           style="fill:#1e6d87;fill-opacity:0.94117647;stroke:none;stroke-width:1;stroke-miterlimit:4;stroke-dasharray:none;stroke-opacity:1"
           d="m 346.20782,-268.6437 a 80.000008,80.000008 0 0 1 -64.20703,32.4336 80.000008,80.000008 0 0 1 -64.21094,-32.42969 c -9.86473,11.87241 -15.78906,27.14688 -15.78906,43.85938 l 0,182.857419 c 0,37.9885724 30.5837,68.570312 68.57227,68.570312 l 22.85546,0 c 37.98857,0 68.57227,-30.5817396 68.57227,-68.570312 l 0,-182.857419 c 0,-16.71449 -5.92612,-31.99028 -15.79297,-43.86329 z M 311.5454,-15.494936 c 14.24571,0 25.71429,14.4168959 25.71429,32.324879 l 0,89.635967 c 0,17.90798 -11.46858,32.32487 -25.71429,32.32487 -14.24571,0 -25.71428,-14.41689 -25.71428,-32.32487 l 0,-89.635967 c 0,-17.9079831 11.46857,-32.324879 25.71428,-32.324879 z m -65.71428,0 c 14.24572,0 25.71429,14.4168959 25.71429,32.324879 l 0,89.635967 c 0,17.90798 -11.46857,32.32487 -25.71429,32.32487 -14.24571,0 -25.71428,-14.41689 -25.71428,-32.32487 l 0,-89.635967 c 0,-17.9079831 11.46857,-32.324879 25.71428,-32.324879 z" />
      </g>
      <path
         inkscape:connector-curvature="0"
         id="path5123"
         d="m 465.85323,-258.85408 c -4.82417,-0.11066 -11.34001,0.19 -19.62509,0.85504 -31.77284,2.55044 -58.97385,16.9973 -96.87679,51.45816 -17.19842,15.63656 -45.34127,39.11043 -62.53969,52.17069 -17.19841,13.06027 -35.17857,26.90484 -39.95591,30.7609 l -8.68607,7.00993 25.54924,0.0747 c 25.44354,0.077 25.61966,0.013 43.01639,-15.62814 9.60742,-8.63788 29.20968,-23.10018 43.56609,-32.13845 14.3564,-9.03827 42.69191,-28.83273 62.9604,-43.98679 20.26849,-15.1541 43.73004,-31.91871 52.14354,-37.25509 14.13491,-8.9653 14.92041,-12.9889 0.44789,-13.3209 z m 70.11964,3.65765 c -3.48961,0.0219 -7.69277,0.22911 -12.90017,0.57002 -30.05432,1.96764 -47.82121,10.54374 -91.04086,43.94608 -17.47842,13.50819 -45.57319,33.45081 -62.43789,44.3193 -35.4911,22.87222 -60.19851,42.02911 -60.19851,46.67404 0,1.78301 5.63597,3.2437 12.52694,3.2437 9.24163,0 14.33104,-2.28978 19.39436,-8.72678 3.77545,-4.79971 21.98273,-15.91822 40.45807,-24.70779 18.47533,-8.78957 47.66208,-26.6728 64.8605,-39.73876 39.84379,-30.27011 59.30937,-38.96655 88.18394,-39.40624 17.5083,-0.2666 23.06773,-1.67984 26.09892,-6.6367 3.15228,-5.1548 2.27106,-7.59463 -4.83841,-13.42948 -5.57934,-4.57905 -9.63806,-6.17297 -20.10689,-6.10739 z m -648.10958,32.87813 c -23.26605,0.30344 -50.24057,3.5444 -79.21965,9.69718 -36.09232,7.66305 -52.81831,9.31716 -94.37277,9.31716 -29.94056,0 -61.3415,2.07133 -77.11599,5.08949 -56.64525,10.83802 -125.2984,49.92532 -179.5505,102.230941 l -31.0256,29.919438 61.9222,92.520189 c 34.0599,50.888934 63.9618,94.974552 66.4416,97.962562 4.0254,4.85033 6.3221,4.31048 21.47768,-5.01485 29.62113,-18.22604 53.58957,-24.967878 94.63742,-26.635008 51.09117,-2.075 77.52058,2.36791 202.29716,34.018168 97.87218,24.82583 144.90956,35.20231 178.933003,39.4809 6.68827,0.84105 28.32981,1.05935 48.092317,0.4818 35.27228,-1.03083 36.29296,-1.29913 55.48222,-14.44059 10.75141,-7.3629 43.83195,-36.63013 73.51266,-65.043718 29.68067,-28.41363 61.46359,-57.335504 70.62857,-64.270114 L 316.66324,10.386878 282.63147,6.5188579 C 263.91182,4.3919209 227.48582,-0.1140731 201.6882,-3.497262 122.31356,-13.90675 49.399093,-6.458773 -2.67868,17.383228 c -19.61686,8.98088 -28.41973,10.72539 -28.41973,5.62559 0,-3.92611 33.93497,-18.8796121 62.77719,-27.659698 54.048263,-16.453288 105.68151,-17.343311 206.4909,-3.569431 89.89795,12.2830369 148.19877,5.698143 178.98727,-20.208679 8.18936,-6.8909 10.36901,-11.525935 10.36901,-22.047682 0,-21.084908 -12.40242,-32.826571 -45.81901,-43.382837 -37.64705,-11.892721 -65.23122,-15.464561 -120.95349,-15.668851 -25.79762,-0.0946 -68.91888,-2.31429 -95.82498,-4.93342 C 107.085,-120.0925 78.383213,-130.26681 37.460443,-159.62933 1.97469,-185.09069 -32.31168,-205.3654 -55.16834,-214.39905 c -14.14453,-5.59036 -33.70233,-8.2227 -56.96837,-7.91925 z m 644.83194,2.34795 c -2.85942,-0.0201 -5.61992,0.11224 -8.22463,0.42073 -21.53036,2.54995 -39.67684,12.05994 -75.99628,39.82019 -16.29892,12.45783 -42.91272,28.76972 -59.1467,36.25076 -29.00792,13.36765 -41.71348,21.7631 -41.71348,27.57148 0,1.61474 3.11353,2.93833 6.9149,2.93833 10.29821,0 40.86326,12.35429 55.27192,22.339482 6.96233,4.824902 15.49751,13.57558 18.96683,19.448647 4.25127,7.196824 7.62407,9.659943 10.34865,7.552807 19.58242,-15.14461 93.82811,-76.842776 121.17064,-100.697306 l 34.09959,-29.75657 -7.70211,-8.19748 c -9.177,-9.76846 -33.97343,-17.55027 -53.98933,-17.69107 z"
         style="fill:#008888;fill-opacity:1" />
    </g>
  </g>
  <g
     inkscape:groupmode="layer"
     id="layer2"
     inkscape:label="hadn"
     transform="translate(573.42122,241.95736)" />
</svg>
