<?xml version="1.0" encoding="UTF-8" standalone="no"?>
<!-- Created with Inkscape (http://www.inkscape.org/) -->

<svg
   xmlns:dc="http://purl.org/dc/elements/1.1/"
   xmlns:cc="http://creativecommons.org/ns#"
   xmlns:rdf="http://www.w3.org/1999/02/22-rdf-syntax-ns#"
   xmlns:svg="http://www.w3.org/2000/svg"
   xmlns="http://www.w3.org/2000/svg"
   xmlns:sodipodi="http://sodipodi.sourceforge.net/DTD/sodipodi-0.dtd"
   xmlns:inkscape="http://www.inkscape.org/namespaces/inkscape"
   width="119.51624mm"
   height="148.29385mm"
   viewBox="0 0 423.48272 525.45066"
   id="svg2"
   version="1.1"
   inkscape:version="0.91 r13725"
   sodipodi:docname="oldLogo.svg">
  <defs
     id="defs4" />
  <sodipodi:namedview
     id="base"
     pagecolor="#ffffff"
     bordercolor="#666666"
     borderopacity="1.0"
     inkscape:pageopacity="0.0"
     inkscape:pageshadow="2"
     inkscape:zoom="0.7"
     inkscape:cx="340.41927"
     inkscape:cy="252.43433"
     inkscape:document-units="px"
     inkscape:current-layer="layer1"
     showgrid="false"
     showborder="false"
     inkscape:window-width="1255"
     inkscape:window-height="756"
     inkscape:window-x="0"
     inkscape:window-y="0"
     inkscape:window-maximized="1"
     fit-margin-top="0"
     fit-margin-left="0"
     fit-margin-right="0"
     fit-margin-bottom="0" />
  <metadata
     id="metadata7">
    <rdf:RDF>
      <cc:Work
         rdf:about="">
        <dc:format>image/svg+xml</dc:format>
        <dc:type
           rdf:resource="http://purl.org/dc/dcmitype/StillImage" />
        <dc:title></dc:title>
      </cc:Work>
    </rdf:RDF>
  </metadata>
  <g
     inkscape:label="Layer 1"
     inkscape:groupmode="layer"
     id="layer1"
     transform="translate(-73.451525,-651.60184)">
    <path
       style="fill:#000000;fill-opacity:1;stroke:#3b9d41;stroke-width:3;stroke-miterlimit:4;stroke-dasharray:none;stroke-opacity:1"
       d="m 284.13834,1170.7687 c -0.88323,-6.6059 -2.97047,-32.5493 -4.63829,-57.652 -3.07843,-46.3336 -3.56982,-46.9379 -7.81296,-9.6086 -3.08877,27.1737 -3.95636,28.1671 -9.66588,11.0671 -4.78814,-14.3406 -4.91781,-16.6853 -2.05741,-37.2078 1.67902,-12.0465 3.6327,-27.3075 4.34151,-33.9135 l 1.28871,-12.0108 -4.61835,15.614 c -2.54013,8.5878 -5.89684,20.4298 -7.45943,26.3157 l -2.84102,10.7015 -9.6029,-19.1091 c -5.28159,-10.51 -10.54166,-20.0926 -11.68906,-21.2946 -1.21038,-1.268 3.56585,-8.2903 11.37733,-16.7276 13.81743,-14.9245 24.71289,-34.43072 24.75447,-44.31816 l 0.024,-5.57922 -6.03329,4.74577 c -13.69513,10.77261 -41.67316,12.34793 -66.86324,3.76482 l -11.55865,-3.93843 13.25926,-5.38897 c 7.29262,-2.96394 16.8365,-7.73637 21.20866,-10.60542 l 7.94879,-5.21642 -9.60867,1.80683 c -23.8113,4.47757 -56.32081,-0.31134 -78.64926,-11.58565 -15.77609,-7.9658 -46.543401,-50.59938 -53.493542,-74.12482 l -1.774192,-6.00542 5.703248,5.13989 c 10.00769,9.01915 32.617366,18.96825 53.746586,23.65051 5.61773,1.2449 3.34367,-1.12085 -10.31486,-10.73077 -26.23478,-18.45837 -43.720154,-43.76742 -51.879233,-75.0923 -3.00045,-11.51954 -3.044145,-15.71356 -0.298613,-28.67565 1.768715,-8.35048 4.302833,-17.99076 5.631375,-21.42288 l 2.415546,-6.2402 15.384455,14.64778 c 8.46144,8.05629 20.02785,17.22044 25.70314,20.36478 l 10.31868,5.71701 -11.51664,-14.12459 c -6.33415,-7.76851 -15.17941,-22.04363 -19.65611,-31.72246 -7.95019,-17.18858 -8.042457,-17.74728 -3.96773,-24.02167 6.96642,-10.72714 31.26364,-33.31785 45.94593,-42.7189 17.37538,-11.12544 39.05046,-20.91603 60.34596,-27.25811 21.62415,-6.43994 23.04189,-6.17921 9.33611,1.71705 -43.41308,25.01141 -63.63308,72.7376 -50.66376,119.58403 2.18002,7.87444 4.21016,21.88398 4.51144,31.13232 0.93521,28.70824 12.58529,63.09153 25.26551,74.56697 3.63998,3.29411 3.47228,1.75971 -1.24123,-11.35747 -6.03753,-16.80183 -9.84849,-38.00249 -6.82328,-37.95827 1.07185,0.0144 5.37999,6.2313 9.57365,13.81249 10.93672,19.7711 31.45,43.57856 48.76109,56.59156 16.67065,12.53155 18.19368,13.03552 21.26766,7.03733 5.14733,-10.04381 5.17955,-16.72907 0.10833,-22.49458 -2.77234,-3.15198 -7.73221,-9.22228 -11.02193,-13.48958 -4.93311,-6.39901 -6.77973,-7.33139 -10.53739,-5.32034 -3.42285,1.83189 -4.55602,1.63532 -4.55602,-0.79032 0,-8.00426 6.37513,-11.93216 21.13998,-13.02493 12.64039,-0.93555 16.43427,-0.18593 26.24477,5.18544 6.30759,3.4535 14.17076,8.35879 17.47374,10.90069 l 6.00542,4.6216 -5.71048,4.04408 c -5.27347,3.73462 -5.59474,5.1513 -4.19817,18.5128 0.83175,7.95777 2.03394,14.99036 2.67155,15.62796 0.63758,0.63759 6.96561,-2.69595 14.06228,-7.40787 17.71768,-11.76389 41.42041,-38.59189 53.96967,-61.08575 l 10.46304,-18.75448 -1.35458,14.94981 c -0.74501,8.2224 -3.50248,21.06095 -6.12769,28.53015 -4.73548,13.47332 -4.7358,13.54656 -0.0406,9.29741 11.65918,-10.55139 24.56133,-50.82436 23.72543,-74.05692 -0.24442,-6.79291 1.23428,-17.91245 3.28599,-24.71003 14.74385,-48.8482 -1.71988,-93.37358 -44.87718,-121.36838 -7.80168,-5.06069 -13.17655,-9.20128 -11.94417,-9.20128 6.79969,0 43.46675,13.93607 62.16156,23.62579 16.64802,8.62887 26.51893,16.01433 42.92578,32.11732 19.23052,18.87438 21.15249,21.56574 19.72772,27.62492 -3.09529,13.16337 -16.08911,36.52975 -27.16332,48.84693 l -11.25206,12.515 10.11562,-5.1606 c 5.56359,-2.83835 17.6223,-12.24202 26.79711,-20.89707 l 16.68148,-15.73648 3.60693,12.79005 c 6.12435,21.71657 6.86078,30.20744 3.76013,43.35276 -7.03145,29.81027 -28.39915,60.45583 -54.00248,77.45034 -7.24935,4.81186 -13.18066,9.13035 -13.18066,9.59661 0,3.54735 38.87114,-10.22323 50.34014,-17.83361 5.88742,-3.90664 11.13298,-6.6744 11.65682,-6.15058 1.90929,1.90931 -11.83735,28.67553 -22.14809,43.12475 -14.36799,20.13494 -26.9286,30.95084 -43.73839,37.66294 -12.081,4.82392 -18.37069,5.64863 -43.43316,5.69504 -16.11854,0.0298 -28.54975,0.78817 -27.62492,1.68514 1.7183,1.6665 20.89912,11.15062 31.7086,15.67856 5.65055,2.36695 5.15375,2.77104 -8.40758,6.83839 -21.97793,6.59166 -43.52104,5.8823 -58.57659,-1.9288 l -12.32619,-6.39504 1.59931,6.501 c 3.69454,15.01787 11.21106,28.0736 23.70211,41.1691 l 13.28415,13.9271 -8.25435,12.2659 c -4.5399,6.7463 -9.51332,16.0806 -11.05208,20.7431 -1.53873,4.6624 -3.58206,8.4771 -4.54077,8.4771 -0.95868,0 -4.32899,-10.5395 -7.48959,-23.4211 -7.28784,-29.7031 -8.46235,-24.4553 -2.79014,12.4666 l 4.40622,28.6813 -5.36015,15.3397 c -2.94806,8.4369 -5.89261,14.4474 -6.54343,13.3567 -0.65082,-1.0907 -1.94736,-11.812 -2.8812,-23.8251 -2.15763,-27.7559 -5.88202,-34.7912 -6.24062,-11.7884 -0.14413,9.2484 -1.55979,33.5703 -3.14582,54.0488 -2.39187,30.8828 -3.15763,35.1849 -4.48963,25.2227 z m 0.61753,-302.67296 c -5.91435,-3.38095 -21.51105,-5.09624 -18.44314,-2.02834 1.38626,1.38627 15.43224,4.74397 22.04639,5.27023 1.32119,0.10522 -0.30028,-1.35374 -3.60325,-3.24189 z M 299.642,837.43766 c -1.38452,-1.66823 -2.8681,-7.34335 -3.29686,-12.61137 -1.07607,-13.22203 -8.52233,-14.44558 -14.9765,-2.4609 -4.91903,9.13409 -9.53943,10.58649 -15.76234,4.95485 -3.12688,-2.82978 -5.7449,-3.03632 -13.02123,-1.02724 -19.76561,5.45755 -41.06398,-5.20943 -47.47342,-23.77638 -7.83452,-22.69509 0.58894,-76.55327 17.79861,-113.80136 9.9751,-21.58979 17.66707,-28.40692 32.05237,-28.40692 13.62351,0 35.68712,8.38325 41.49457,15.76621 2.53229,3.21931 6.12413,5.85329 7.98183,5.85329 5.77151,0 9.14283,5.39699 9.14283,14.63642 0,8.68201 2.84799,11.78741 10.81031,11.78741 1.76597,0 5.54912,-3.78341 8.40703,-8.40758 5.49904,-8.89763 11.88752,-10.74177 16.78194,-4.84438 2.38972,2.87943 1.96824,5.23934 -2.19633,12.29775 -4.77185,8.08773 -4.87529,9.15917 -1.3965,14.46846 l 3.75702,5.73393 9.72623,-4.96197 c 7.63298,-3.89405 10.46234,-4.35107 13.14643,-2.12346 5.06931,4.20715 4.15481,10.27721 -2.15518,14.30523 l -5.57538,3.5591 4.09706,13.21192 4.09704,13.21191 3.51834,-12.01083 c 3.42926,-11.70669 3.77082,-12.02955 13.48917,-12.7495 l 9.97082,-0.73866 0,22.9587 c 0,22.88784 -0.0192,22.95871 -6.00542,22.95871 -5.82792,0 -6.01365,-0.51471 -6.28407,-17.41571 -0.15325,-9.57864 -0.78452,-15.25376 -1.40277,-12.61137 -5.5619,23.77066 -8.40162,30.02708 -13.629,30.02708 -4.47896,0 -5.99343,-2.27221 -9.20623,-13.81246 l -3.84541,-13.81246 -0.23205,12.69238 c -0.22028,12.05594 0.18953,12.94114 8.1756,17.65299 8.86061,5.22788 10.75301,11.55992 4.90523,16.41314 -2.80218,2.32561 -5.4448,1.81501 -13.2184,-2.55401 l -9.71607,-5.46072 -4.78452,5.13559 c -4.78016,5.13088 -4.77992,5.14337 0.26739,13.69792 4.08025,6.9155 4.48314,9.24772 2.09474,12.12559 -4.90165,5.90611 -11.21714,4.04779 -16.46366,-4.84438 -5.0851,-8.61859 -6.73849,-9.48034 -13.33373,-6.94949 -2.51572,0.96536 -3.79972,4.4559 -3.79972,10.32931 0,12.58637 -7.76193,19.04724 -13.93987,11.60326 z m -35.82721,-25.40363 c 4.56584,-4.56585 5.37456,-8.77204 6.65664,-34.62192 1.42415,-28.71404 1.70616,-29.89859 11.67741,-49.04621 17.80464,-34.18999 15.94875,-46.8042 -8.21639,-55.84552 -24.32629,-9.10164 -31.43089,-5.80609 -43.41892,20.14046 -12.69663,27.48018 -18.80027,53.98857 -18.91995,82.17014 -0.11242,26.47509 2.83783,34.18146 15.74186,41.11918 8.80463,4.73373 30.11745,2.44577 36.47935,-3.91613 z m -39.05198,-31.55625 c -10.76538,-10.76539 -9.156,-31.06215 3.07194,-38.742 10.31517,-6.47855 27.18722,-5.00244 33.61967,2.94128 4.49926,5.55636 4.49239,5.57889 -2.24982,7.38203 -3.81455,1.02018 -7.78281,0.7887 -9.10246,-0.53095 -3.23656,-3.23656 -11.8368,-2.93158 -15.31134,0.54296 -3.54132,3.54132 -3.73239,12.66055 -0.39592,18.89482 2.50375,4.67829 8.30614,5.88482 15.3331,3.18832 5.3674,-2.05966 4.72275,-5.74841 -1.00461,-5.74841 -3.20288,0 -4.80434,-1.60145 -4.80434,-4.80433 0,-4.09257 1.60146,-4.80433 10.80975,-4.80433 l 10.80975,0 0,10.42415 c 0,8.83937 -0.93021,10.84802 -6.11843,13.21192 -10.10479,4.60406 -29.17369,3.52813 -34.65729,-1.95546 z m 7.14539,-51.04873 c 0,-1.17899 -1.0686,-1.48315 -2.37466,-0.67597 -1.4105,0.87174 -1.73242,-0.20587 -0.79286,-2.65447 0.95222,-2.48144 0.62257,-3.52924 -0.82824,-2.63258 -1.32549,0.81921 -2.41002,-0.0846 -2.41002,-2.00812 0,-1.92367 0.86689,-3.49757 1.92641,-3.49757 1.05953,0 1.23616,-1.79879 0.39252,-3.99733 -0.97579,-2.54281 -0.58599,-3.41144 1.07129,-2.38718 1.43287,0.88556 3.1527,0.25216 3.82183,-1.40757 0.94297,-2.33897 1.25926,-2.31045 1.40625,0.12683 0.10425,1.72947 1.13108,2.56264 2.28174,1.8515 1.15067,-0.71116 4.43803,0.74162 7.30528,3.22837 3.7445,3.24756 4.33942,4.87197 2.1117,5.76592 -2.52749,1.01421 -2.52826,1.27963 -0.005,1.43419 2.52845,0.1547 2.52845,0.8052 0,3.54074 -1.70357,1.84311 -3.90813,2.86028 -4.89902,2.26039 -0.9909,-0.59989 -1.80163,-0.12611 -1.80163,1.05287 0,1.17896 -1.62146,2.14357 -3.60325,2.14357 -1.98179,0 -3.60325,-0.96461 -3.60325,-2.14357 z m 8.58568,-8.33578 c -0.32883,-2.24048 -2.0269,-4.54992 -3.77347,-5.13211 -2.14393,-0.71465 -2.66998,0.25907 -1.61925,2.99725 0.9195,2.39621 0.58467,3.45525 -0.8183,2.58817 -1.30605,-0.80718 -2.37466,-0.32285 -2.37466,1.07631 0,1.39917 2.0663,2.54395 4.59179,2.54395 2.9508,0 4.37812,-1.45579 3.99389,-4.07357 z m 15.43599,-2.76341 c 0,-3.63753 -1.07038,-4.61233 -3.88046,-3.53399 -3.08532,1.18393 -3.54438,0.43015 -2.24029,-3.67866 1.20241,-3.78843 0.63526,-5.16771 -2.12495,-5.16771 -2.07084,0 -3.76514,-1.08097 -3.76514,-2.40216 0,-1.32119 1.62147,-2.40217 3.60325,-2.40217 4.99029,0 4.53496,-4.20857 -0.60054,-5.55061 -3.02082,-0.78943 -2.60954,-1.17699 1.4615,-1.37724 4.80311,-0.23637 5.43592,-1.19258 4.15804,-6.28407 -0.86918,-3.46308 -0.47097,-6.00541 0.94066,-6.00541 1.34637,0 2.44793,1.08097 2.44793,2.40216 0,1.3212 1.08097,2.40217 2.40216,2.40217 1.3212,0 2.40217,-1.62146 2.40217,-3.60325 0,-1.98179 1.08098,-3.60325 2.40217,-3.60325 1.32119,0 2.40216,1.62146 2.40216,3.60325 0,4.78062 2.35093,4.55528 6.26473,-0.60054 2.94042,-3.87349 3.19714,-3.75713 3.26755,1.48125 0.06,4.47103 1.09342,5.41909 4.83904,4.43959 4.05119,-1.05941 4.39741,-0.56298 2.31766,3.32308 -1.90943,3.56777 -1.63719,4.56854 1.24276,4.56854 2.02827,0 3.68776,1.08097 3.68776,2.40216 0,1.3212 -1.08097,2.40217 -2.40216,2.40217 -3.45756,0 -2.96478,6.57913 0.60054,8.01776 1.65149,0.66638 0.49768,1.29695 -2.56405,1.40126 -4.6279,0.15758 -5.29135,1.1012 -3.93379,5.59452 1.33219,4.40942 1.05232,4.85185 -1.51966,2.40217 -4.22711,-4.02615 -6.99604,-3.78846 -6.99604,0.60054 0,4.35813 -4.00057,4.80183 -5.41461,0.60054 -0.78788,-2.34093 -1.89084,-2.2761 -5.0045,0.29412 -3.50152,2.89041 -3.99389,2.6776 -3.99389,-1.72622 z m 18.4102,-14.30476 c 0.94713,-3.76755 -0.0418,-6.61155 -3.10542,-8.93173 -6.29068,-4.76393 -7.08688,-4.51783 -13.21146,4.08337 -2.99219,4.20213 -4.13915,6.83606 -2.54877,5.85317 1.65478,-1.0227 3.46464,-0.29362 4.23144,1.7046 2.18169,5.6854 13.0287,3.67716 14.63421,-2.70941 z m -10.40299,-1.57318 c 0,-1.92367 0.91845,-2.92994 2.041,-2.23617 1.12253,0.69377 1.41908,2.26767 0.65894,3.49758 -1.94244,3.14294 -2.69994,2.78906 -2.69994,-1.26141 z m 56.4444,90.55404 c 1.75801,-1.66364 3.98825,-2.53539 4.95608,-1.93722 0.96783,0.59814 4.6641,-3.39172 8.21392,-8.86635 15.60606,-24.06815 1.36474,-52.282 -26.34586,-52.19444 -13.76869,0.0435 -15.45919,0.95786 -22.13848,11.97405 -3.93023,6.48215 -5.09971,12.33272 -5.10662,25.54702 -0.007,16.01949 0.41937,17.4201 6.54672,21.43489 11.22842,7.35714 28.22759,9.38558 33.87424,4.04205 z m -30.82128,-30.60554 0,-22.82059 19.21733,0 c 17.61588,0 19.21733,0.40037 19.21733,4.80434 0,4.16374 -1.60145,4.80433 -12.01083,4.80433 -9.07486,0 -12.01083,0.8808 -12.01083,3.60325 0,2.66907 2.80253,3.60325 10.80975,3.60325 9.20829,0 10.80975,0.71176 10.80975,4.80433 0,4.09257 -1.60146,4.80434 -10.80975,4.80434 -9.2083,0 -10.80975,0.71176 -10.80975,4.80433 0,4.16375 1.60145,4.80433 12.01083,4.80433 10.40938,0 12.01083,0.64059 12.01083,4.80433 0,4.40397 -1.60145,4.80434 -19.21733,4.80434 l -19.21733,0 0,-22.82058 z m -110.49966,9.60866 c 0,-13.07845 0.0728,-13.21191 7.2065,-13.21191 7.13371,0 7.2065,0.13356 7.2065,13.21191 0,13.07845 -0.0728,13.21192 -7.2065,13.21192 -7.13372,0 -7.2065,-0.13356 -7.2065,-13.21192 z m 0.53984,-20.44664 c -3.31055,-5.30105 1.56484,-13.10439 8.41387,-13.46681 2.94275,-0.15566 4.77068,0.655 4.06202,1.80163 -0.70864,1.1466 -0.08,2.08474 1.39727,2.08474 1.47714,0 2.07468,0.98864 1.32789,2.197 -0.74681,1.20834 1.2e-4,2.74447 1.65985,3.4136 2.33897,0.94297 2.31043,1.25926 -0.12683,1.40625 -1.74684,0.10545 -2.38264,1.42232 -1.43047,2.96298 1.06195,1.71827 0.65894,2.12125 -1.05933,1.0593 -1.5253,-0.9427 -2.7733,-0.6364 -2.7733,0.68063 0,3.77145 -8.80519,2.12931 -11.471,-2.13932 z m 11.47099,-3.17465 c 0,-1.76161 -0.71128,-3.91417 -1.5806,-4.78351 -2.17235,-2.17235 -8.29355,3.21126 -6.65876,5.85641 2.04691,3.31196 8.23936,2.5056 8.23936,-1.0729 z"
       id="path4239"
       inkscape:connector-curvature="0" />
  </g>
</svg>
