<?xml version="1.0" standalone="no"?>
<!DOCTYPE svg PUBLIC "-//W3C//DTD SVG 20010904//EN"
 "http://www.w3.org/TR/2001/REC-SVG-20010904/DTD/svg10.dtd">
<svg version="1.0" xmlns="http://www.w3.org/2000/svg"
 width="502.000000pt" height="502.000000pt" viewBox="0 0 502.000000 502.000000"
 preserveAspectRatio="xMidYMid meet">
<metadata>
Created by potrace 1.13, written by Peter Selinger 2001-2015
</metadata>
<g transform="translate(0.000000,502.000000) scale(0.100000,-0.100000)"
fill="#000000" stroke="none">
<path d="M2260 4988 c-52 -5 -160 -22 -240 -38 -1159 -234 -1990 -1251 -1990
-2435 0 -1184 832 -2203 1990 -2435 1538 -308 2970 866 2970 2435 0 1380
-1124 2497 -2500 2484 -74 -1 -178 -6 -230 -11z m455 -49 c252 -22 513 -88
737 -187 l128 -56 -27 -45 c-14 -25 -27 -47 -28 -48 -1 -2 -46 17 -101 41
-273 120 -541 181 -849 193 -399 15 -794 -74 -1148 -259 l-98 -52 -35 35 -35
35 103 56 c426 231 884 328 1353 287z m-34 -159 c551 -54 1056 -297 1434 -691
337 -351 556 -805 627 -1304 16 -116 16 -444 0 -560 -71 -499 -290 -953 -627
-1304 -378 -394 -883 -637 -1434 -691 -479 -47 -1008 93 -1435 379 -544 365
-902 945 -998 1616 -19 133 -16 456 5 585 87 519 287 931 622 1279 469 489
1164 754 1806 691z m2188 -1697 c57 -248 77 -442 67 -658 -4 -82 -11 -170 -14
-195 l-7 -44 -60 -12 c-33 -7 -61 -11 -63 -9 -2 2 2 59 9 127 25 257 -9 629
-77 850 -4 13 3 18 33 21 99 10 89 17 112 -80z m-4418 -1675 c159 -314 449
-637 765 -849 828 -555 1933 -511 2707 108 38 30 69 53 71 51 1 -1 13 -21 25
-43 l23 -40 -33 -28 c-59 -49 -231 -163 -334 -220 -411 -229 -918 -339 -1370
-297 -812 76 -1534 553 -1929 1272 l-37 67 38 20 c21 11 39 20 40 21 2 0 17
-28 34 -62z"/>
</g>
</svg>
