<?xml version="1.0" encoding="UTF-8" standalone="no"?>
<!-- Created with Inkscape (http://www.inkscape.org/) -->

<svg
   xmlns:dc="http://purl.org/dc/elements/1.1/"
   xmlns:cc="http://creativecommons.org/ns#"
   xmlns:rdf="http://www.w3.org/1999/02/22-rdf-syntax-ns#"
   xmlns:svg="http://www.w3.org/2000/svg"
   xmlns="http://www.w3.org/2000/svg"
   xmlns:sodipodi="http://sodipodi.sourceforge.net/DTD/sodipodi-0.dtd"
   xmlns:inkscape="http://www.inkscape.org/namespaces/inkscape"
   width="214.14122mm"
   height="202.35159mm"
   viewBox="0 0 758.7681 716.99383"
   id="svg2"
   version="1.1"
   inkscape:version="0.91 r13725"
   sodipodi:docname="tick.svg">
  <defs
     id="defs4" />
  <sodipodi:namedview
     id="base"
     pagecolor="#ffffff"
     bordercolor="#666666"
     borderopacity="1.0"
     inkscape:pageopacity="0.0"
     inkscape:pageshadow="2"
     inkscape:zoom="0.35"
     inkscape:cx="144.21443"
     inkscape:cy="584.08862"
     inkscape:document-units="px"
     inkscape:current-layer="layer1"
     showgrid="false"
     fit-margin-top="0"
     fit-margin-left="0"
     fit-margin-right="0"
     fit-margin-bottom="0"
     showborder="false"
     inkscape:window-width="1255"
     inkscape:window-height="756"
     inkscape:window-x="0"
     inkscape:window-y="0"
     inkscape:window-maximized="1" />
  <metadata
     id="metadata7">
    <rdf:RDF>
      <cc:Work
         rdf:about="">
        <dc:format>image/svg+xml</dc:format>
        <dc:type
           rdf:resource="http://purl.org/dc/dcmitype/StillImage" />
        <dc:title></dc:title>
      </cc:Work>
    </rdf:RDF>
  </metadata>
  <g
     inkscape:label="Layer 1"
     inkscape:groupmode="layer"
     id="layer1"
     transform="translate(-3.6427124,-513.7427)">
    <path
       style="fill:#005253;fill-opacity:1"
       d="M 350.67435,1228.8174 C 234.88685,1214.2743 148.20731,1095.8573 146.8762,950.39898 c -0.33306,-36.42041 -2.6773,-54.03351 -7.19295,-54.04853 -11.29229,-0.0351 -40.951965,38.1322 -51.89396,66.78348 -8.890954,23.2806 -9.392291,31.45595 -3.531385,57.58437 3.75687,16.7484 13.355539,44.5171 21.330355,61.7081 17.43945,37.5935 18.17872,51.0882 3.23678,59.0849 -17.030782,9.1146 -28.771351,1.5516 -43.865851,-28.2573 C 5.2089704,995.25769 31.176633,898.75739 139.81063,835.09365 c 14.86212,-8.70976 27.02198,-18.21547 27.02198,-21.1238 0,-2.90834 -17.74837,-5.34561 -39.44082,-5.41619 C 79.645842,808.39823 48.651957,795.73843 22.166129,765.57274 2.2152659,742.84998 -1.387405,727.98658 10.237938,716.36123 c 11.6843,-11.6843 22.651011,-8.08776 48.780412,15.99743 14.889115,13.72436 33.455751,24.60266 46.01085,26.95801 23.18495,4.34953 77.77496,-0.88038 90.35699,-8.65647 11.72006,-7.24344 2.41308,-17.91841 -15.75149,-18.06664 C 123.30455,732.1337 52.287525,651.19278 79.473529,618.43569 c 12.539143,-15.10876 30.159141,-7.20277 46.349691,20.79682 19.71673,34.09779 45.49601,47.5089 87.29247,45.41217 17.42139,-0.87396 32.67424,-4.62002 33.89515,-8.32447 1.23622,-3.75085 -10.49377,-10.9583 -26.47081,-16.26499 -35.49417,-11.7893 -77.07976,-46.16621 -77.07976,-63.71837 0,-15.6188 36.61494,-71.26075 52.48008,-79.75151 9.13011,-4.88628 13.95557,-3.73899 23.21358,5.51903 12.61855,12.61855 11.32373,22.12297 -6.52748,47.91312 -5.90444,8.53032 -10.73533,18.52474 -10.73533,22.20974 0,8.66197 33.43408,22.52468 73.94862,30.66118 l 31.96594,6.41968 25.0811,-28.50274 c 36.21321,-41.15349 64.06673,-41.15349 100.27995,0 l 25.08109,28.50274 31.96594,-6.41968 c 40.51455,-8.1365 73.94862,-21.99921 73.94862,-30.66118 0,-3.685 -4.83088,-13.67942 -10.73532,-22.20974 -15.98522,-23.09432 -18.47215,-33.7378 -10.44755,-44.7121 12.92402,-17.67463 33.6743,-8.36041 57.51754,25.81802 12.15291,17.42081 22.09621,37.5937 22.09621,44.82861 0,16.39991 -40.28988,51.99446 -69.50638,61.40621 -11.5838,3.73157 -26.01809,9.35063 -32.07626,12.48679 -16.63439,8.61124 -0.92409,15.93643 34.38714,16.0336 39.58341,0.10868 66.28748,-14.57458 84.83256,-46.64611 16.19054,-27.99959 33.81054,-35.90558 46.34968,-20.79682 27.18601,32.75709 -43.83102,113.69813 -100.16116,114.15787 -18.16458,0.14841 -27.47158,10.8232 -15.7515,18.06664 12.58203,7.77609 67.17204,13.006 90.357,8.65647 12.55509,-2.35535 31.12173,-13.23365 46.01084,-26.95795 26.1294,-24.08525 37.09611,-27.68179 48.78041,-15.99749 11.62534,11.62535 8.02267,26.48875 -11.92819,49.21151 -26.48583,30.16569 -57.47971,42.82555 -105.22566,42.98092 -21.69245,0.0707 -39.44082,2.50785 -39.44082,5.41619 0,2.90833 12.15987,12.41404 27.02199,21.1238 66.25444,38.82765 107.35523,99.33011 107.36434,158.04575 0.006,50.1455 -34.08154,142.4906 -55.6569,150.7698 -13.21636,5.0716 -31.98475,-6.2688 -31.98475,-19.326 0,-5.9952 6.52485,-24.9658 14.49967,-42.1568 7.97482,-17.191 17.57349,-44.9597 21.33036,-61.7081 5.8609,-26.12842 5.35957,-34.30377 -3.53139,-57.58437 -10.94199,-28.65128 -40.60167,-66.82093 -51.89395,-66.78348 -4.51566,0.0175 -6.85967,17.62812 -7.19296,54.04853 -1.60866,175.78722 -118.72689,297.23042 -268.50298,278.41842 z m 80.22573,-111.4804 c 74.93055,-22.4497 127.06221,-137.25976 104.78819,-230.77594 -7.07884,-29.72032 -35.61956,-95.56681 -41.2565,-95.18327 -1.81936,0.12388 -8.56672,8.57122 -14.99412,18.77202 -42.04742,66.73282 -150.77437,66.73282 -192.8218,0 -6.42739,-10.2008 -13.17405,-18.6482 -14.99253,-18.77202 -6.41781,-0.43706 -27.90541,44.02531 -37.75504,78.12275 -13.42747,46.48338 -9.72762,118.06485 8.18196,158.29716 16.00841,35.9615 48.60383,70.8775 79.62412,85.2929 26.90157,12.5014 75.38217,14.3862 109.22572,4.2464 z"
       id="path7047"
       inkscape:connector-curvature="0" />
  </g>
</svg>
