<?xml version="1.0" encoding="UTF-8" standalone="no"?>
<!-- Created with Inkscape (http://www.inkscape.org/) -->

<svg
   xmlns:dc="http://purl.org/dc/elements/1.1/"
   xmlns:cc="http://creativecommons.org/ns#"
   xmlns:rdf="http://www.w3.org/1999/02/22-rdf-syntax-ns#"
   xmlns:svg="http://www.w3.org/2000/svg"
   xmlns="http://www.w3.org/2000/svg"
   xmlns:sodipodi="http://sodipodi.sourceforge.net/DTD/sodipodi-0.dtd"
   xmlns:inkscape="http://www.inkscape.org/namespaces/inkscape"
   width="131.14241mm"
   height="131.14241mm"
   viewBox="0 0 464.67783 464.67783"
   id="svg2"
   version="1.1"
   inkscape:version="0.91 r13725"
   sodipodi:docname="combined.svg">
  <defs
     id="defs4" />
  <sodipodi:namedview
     id="base"
     pagecolor="#ffffff"
     bordercolor="#666666"
     borderopacity="1.0"
     inkscape:pageopacity="0.0"
     inkscape:pageshadow="2"
     inkscape:zoom="0.35"
     inkscape:cx="501.65705"
     inkscape:cy="237.5584"
     inkscape:document-units="px"
     inkscape:current-layer="layer1"
     showgrid="false"
     showborder="true"
     inkscape:window-width="1255"
     inkscape:window-height="756"
     inkscape:window-x="0"
     inkscape:window-y="0"
     inkscape:window-maximized="1"
     fit-margin-top="0"
     fit-margin-left="0"
     fit-margin-right="0"
     fit-margin-bottom="0" />
  <metadata
     id="metadata7">
    <rdf:RDF>
      <cc:Work
         rdf:about="">
        <dc:format>image/svg+xml</dc:format>
        <dc:type
           rdf:resource="http://purl.org/dc/dcmitype/StillImage" />
        <dc:title></dc:title>
      </cc:Work>
    </rdf:RDF>
  </metadata>
  <g
     inkscape:label="Layer 1"
     inkscape:groupmode="layer"
     id="layer1"
     transform="translate(-61.110396,-400.30492)">
    <g
       transform="matrix(2.1004187,0,0,2.1004187,452.48108,357.62839)"
       id="layer1-6"
       inkscape:label="Layer 1">
      <circle
         r="110"
         cy="-151.24901"
         cx="0.10371189"
         transform="matrix(-0.8660254,-0.5,0.5,-0.8660254,0,0)"
         style="fill:#ffffff;fill-opacity:0;stroke:#31ecb1;stroke-width:1.20000005;stroke-miterlimit:4;stroke-dasharray:none;stroke-opacity:1"
         id="path4142" />
      <path
         id="path4136"
         transform="translate(-186.32984,20.318107)"
         d="M 209.58789,110.61523 A 98.971504,98.971504 0 0 1 196.25,160.05664 l 9.62891,5.55859 a 110,110 0 0 0 14.73632,-55 l -11.02734,0 z"
         style="fill:#31ecb1;fill-opacity:1;stroke:#713bd6;stroke-width:0;stroke-miterlimit:4;stroke-dasharray:none;stroke-opacity:1"
         inkscape:connector-curvature="0" />
      <path
         id="path4138"
         transform="translate(-186.32984,20.318107)"
         d="m 61.173828,196.25 -5.558594,9.62891 a 110,110 0 0 0 54.999996,14.73632 l 0,-11.02734 A 98.971504,98.971504 0 0 1 61.173828,196.25 Z"
         style="fill:#31ecb1;fill-opacity:1;stroke:#713bd6;stroke-width:0;stroke-miterlimit:4;stroke-dasharray:none;stroke-opacity:1"
         inkscape:connector-curvature="0" />
      <path
         id="path4140"
         transform="translate(-186.32984,20.318107)"
         d="M 55.615234,15.353516 A 110,110 0 0 0 15.353516,55.615234 l 9.626953,5.558594 A 98.971504,98.971504 0 0 1 61.191406,25.011719 l -5.576172,-9.658203 z"
         style="fill:#31ecb1;fill-opacity:1;stroke:#713bd6;stroke-width:0;stroke-miterlimit:4;stroke-dasharray:none;stroke-opacity:1"
         inkscape:connector-curvature="0" />
      <circle
         r="98.971504"
         cy="130.93364"
         cx="-75.714287"
         id="path4147"
         style="fill:#ffffff;fill-opacity:0;stroke:#31ecb1;stroke-width:1.52691066;stroke-miterlimit:4;stroke-dasharray:none;stroke-opacity:1" />
    </g>
    <g
       transform="matrix(1.0606745,1.8129336,-1.8129336,1.0606745,611.13153,631.03091)"
       id="layer1-7"
       inkscape:label="Layer 1">
      <circle
         r="110"
         cy="-151.24901"
         cx="0.10371189"
         transform="matrix(-0.8660254,-0.5,0.5,-0.8660254,0,0)"
         style="fill:#ffffff;fill-opacity:0;stroke:#ec5631;stroke-width:1.20000005;stroke-miterlimit:4;stroke-dasharray:none;stroke-opacity:1"
         id="path4142-3" />
      <path
         id="path4136-5"
         transform="translate(-186.32984,20.318107)"
         d="M 209.58789,110.61523 A 98.971504,98.971504 0 0 1 196.25,160.05664 l 9.62891,5.55859 a 110,110 0 0 0 14.73632,-55 l -11.02734,0 z"
         style="fill:#ec5631;fill-opacity:1;stroke:none;stroke-width:0;stroke-miterlimit:4;stroke-dasharray:none;stroke-opacity:1"
         inkscape:connector-curvature="0" />
      <path
         id="path4138-2"
         transform="translate(-186.32984,20.318107)"
         d="m 61.173828,196.25 -5.558594,9.62891 a 110,110 0 0 0 54.999996,14.73632 l 0,-11.02734 A 98.971504,98.971504 0 0 1 61.173828,196.25 Z"
         style="fill:#ec5631;fill-opacity:1;stroke:#713bd6;stroke-width:0;stroke-miterlimit:4;stroke-dasharray:none;stroke-opacity:1"
         inkscape:connector-curvature="0" />
      <path
         id="path4140-0"
         transform="translate(-186.32984,20.318107)"
         d="M 55.615234,15.353516 A 110,110 0 0 0 15.353516,55.615234 l 9.626953,5.558594 A 98.971504,98.971504 0 0 1 61.191406,25.011719 l -5.576172,-9.658203 z"
         style="fill:#ec5631;fill-opacity:1;stroke:#713bd6;stroke-width:0;stroke-miterlimit:4;stroke-dasharray:none;stroke-opacity:1"
         inkscape:connector-curvature="0" />
      <circle
         r="98.971504"
         cy="130.93364"
         cx="-75.714287"
         id="path4147-6"
         style="fill:#ffffff;fill-opacity:0;fill-rule:nonzero;stroke:#ec5631;stroke-width:1.52691066;stroke-miterlimit:4;stroke-dasharray:none;stroke-opacity:1" />
    </g>
  </g>
</svg>
