<?xml version="1.0" encoding="UTF-8" standalone="no"?>
<!-- Created with Inkscape (http://www.inkscape.org/) -->

<svg
   xmlns:dc="http://purl.org/dc/elements/1.1/"
   xmlns:cc="http://creativecommons.org/ns#"
   xmlns:rdf="http://www.w3.org/1999/02/22-rdf-syntax-ns#"
   xmlns:svg="http://www.w3.org/2000/svg"
   xmlns="http://www.w3.org/2000/svg"
   xmlns:sodipodi="http://sodipodi.sourceforge.net/DTD/sodipodi-0.dtd"
   xmlns:inkscape="http://www.inkscape.org/namespaces/inkscape"
   width="1403.8214"
   height="1204.6426"
   viewBox="0 0 1403.8214 1204.6426"
   id="svg2"
   version="1.1"
   inkscape:version="0.91 r13725"
   sodipodi:docname="step-1.svg">
  <defs
     id="defs4" />
  <sodipodi:namedview
     id="base"
     pagecolor="#ffffff"
     bordercolor="#666666"
     borderopacity="1.0"
     inkscape:pageopacity="0.0"
     inkscape:pageshadow="2"
     inkscape:zoom="0.24748737"
     inkscape:cx="897.44634"
     inkscape:cy="376.08391"
     inkscape:document-units="px"
     inkscape:current-layer="layer1"
     showgrid="false"
     units="px"
     showborder="false"
     inkscape:object-paths="true"
     inkscape:snap-intersection-paths="true"
     inkscape:object-nodes="true"
     inkscape:snap-smooth-nodes="true"
     inkscape:snap-midpoints="true"
     inkscape:window-width="1255"
     inkscape:window-height="756"
     inkscape:window-x="0"
     inkscape:window-y="0"
     inkscape:window-maximized="1"
     fit-margin-top="0"
     fit-margin-left="0"
     fit-margin-right="0"
     fit-margin-bottom="0" />
  <metadata
     id="metadata7">
    <rdf:RDF>
      <cc:Work
         rdf:about="">
        <dc:format>image/svg+xml</dc:format>
        <dc:type
           rdf:resource="http://purl.org/dc/dcmitype/StillImage" />
        <dc:title></dc:title>
      </cc:Work>
    </rdf:RDF>
  </metadata>
  <g
     inkscape:label="Layer 1"
     inkscape:groupmode="layer"
     id="layer1"
     transform="translate(480.39145,-265.44147)">
    <g
       id="g4498">
      <g
         inkscape:label="Layer 1"
         id="layer1-8"
         transform="matrix(2.3509596,0,0,2.3509596,-42.337522,217.67442)">
        <circle
           id="path4142"
           style="fill:#ffffff;fill-opacity:0;stroke:#31ecb1;stroke-width:1.20000005;stroke-miterlimit:4;stroke-dasharray:none;stroke-opacity:1"
           transform="matrix(-0.8660254,-0.5,0.5,-0.8660254,0,0)"
           cx="0.10371189"
           cy="-151.24901"
           r="110" />
        <path
           inkscape:connector-curvature="0"
           style="fill:#31ecb1;fill-opacity:1;stroke:#713bd6;stroke-width:0;stroke-miterlimit:4;stroke-dasharray:none;stroke-opacity:1"
           d="M 209.58789,110.61523 A 98.971504,98.971504 0 0 1 196.25,160.05664 l 9.62891,5.55859 a 110,110 0 0 0 14.73632,-55 l -11.02734,0 z"
           transform="translate(-186.32984,20.318107)"
           id="path4136" />
        <path
           inkscape:connector-curvature="0"
           style="fill:#31ecb1;fill-opacity:1;stroke:#713bd6;stroke-width:0;stroke-miterlimit:4;stroke-dasharray:none;stroke-opacity:1"
           d="m 61.173828,196.25 -5.558594,9.62891 a 110,110 0 0 0 54.999996,14.73632 l 0,-11.02734 A 98.971504,98.971504 0 0 1 61.173828,196.25 Z"
           transform="translate(-186.32984,20.318107)"
           id="path4138" />
        <path
           inkscape:connector-curvature="0"
           style="fill:#31ecb1;fill-opacity:1;stroke:#713bd6;stroke-width:0;stroke-miterlimit:4;stroke-dasharray:none;stroke-opacity:1"
           d="M 55.615234,15.353516 A 110,110 0 0 0 15.353516,55.615234 l 9.626953,5.558594 A 98.971504,98.971504 0 0 1 61.191406,25.011719 l -5.576172,-9.658203 z"
           transform="translate(-186.32984,20.318107)"
           id="path4140" />
        <circle
           style="fill:#ffffff;fill-opacity:0;stroke:#31ecb1;stroke-width:1.52691066;stroke-miterlimit:4;stroke-dasharray:none;stroke-opacity:1"
           id="path4147"
           cx="-75.714287"
           cy="130.93364"
           r="98.971504" />
      </g>
      <g
         inkscape:label="Layer 1"
         id="layer1-5"
         transform="matrix(2.3509596,0,0,2.3509596,841.3787,217.67442)">
        <circle
           id="path4142-0"
           style="fill:#ffffff;fill-opacity:0;stroke:#ec5631;stroke-width:1.20000005;stroke-miterlimit:4;stroke-dasharray:none;stroke-opacity:1"
           transform="matrix(-0.8660254,-0.5,0.5,-0.8660254,0,0)"
           cx="0.10371189"
           cy="-151.24901"
           r="110" />
        <path
           inkscape:connector-curvature="0"
           style="fill:#ec5631;fill-opacity:1;stroke:none;stroke-width:0;stroke-miterlimit:4;stroke-dasharray:none;stroke-opacity:1"
           d="M 209.58789,110.61523 A 98.971504,98.971504 0 0 1 196.25,160.05664 l 9.62891,5.55859 a 110,110 0 0 0 14.73632,-55 l -11.02734,0 z"
           transform="translate(-186.32984,20.318107)"
           id="path4136-7" />
        <path
           inkscape:connector-curvature="0"
           style="fill:#ec5631;fill-opacity:1;stroke:#713bd6;stroke-width:0;stroke-miterlimit:4;stroke-dasharray:none;stroke-opacity:1"
           d="m 61.173828,196.25 -5.558594,9.62891 a 110,110 0 0 0 54.999996,14.73632 l 0,-11.02734 A 98.971504,98.971504 0 0 1 61.173828,196.25 Z"
           transform="translate(-186.32984,20.318107)"
           id="path4138-6" />
        <path
           inkscape:connector-curvature="0"
           style="fill:#ec5631;fill-opacity:1;stroke:#713bd6;stroke-width:0;stroke-miterlimit:4;stroke-dasharray:none;stroke-opacity:1"
           d="M 55.615234,15.353516 A 110,110 0 0 0 15.353516,55.615234 l 9.626953,5.558594 A 98.971504,98.971504 0 0 1 61.191406,25.011719 l -5.576172,-9.658203 z"
           transform="translate(-186.32984,20.318107)"
           id="path4140-6" />
        <circle
           style="fill:#ffffff;fill-opacity:0;fill-rule:nonzero;stroke:#ec5631;stroke-width:1.52691066;stroke-miterlimit:4;stroke-dasharray:none;stroke-opacity:1"
           id="path4147-1"
           cx="-75.714287"
           cy="130.93364"
           r="98.971504" />
      </g>
      <path
         inkscape:connector-curvature="0"
         id="path4496"
         d="m 111.51485,1467.7202 c -15.069314,-0.8654 -35.422194,-1.7128 -45.228574,-1.883 -11.24462,-0.1953 -17.30797,-1.1537 -16.41733,-2.595 0.77685,-1.2569 25.23955,-22.9319 54.361494,-48.1663 29.12194,-25.2344 52.7108,-46.3179 52.41982,-46.852 -0.29116,-0.5341 -13.13423,-11.8149 -28.54036,-25.0682 -35.631884,-30.6528 -84.934094,-79.2613 -102.831504,-101.3845 -43.151377,-53.3403 -70.95855,-109.4251 -84.030125,-169.4832 -7.994405,-36.7308 -8.386024,-116.4056 -0.72223,-146.94077 1.306372,-5.20448 2.841067,-5.98772 100.208715,-51.14103 55.06289,-25.5349 63.094564,-28.68101 68.209184,-26.71834 4.6808,1.79608 4.81596,11.46053 0.25791,18.41725 -6.25075,9.53969 -17.029964,42.28229 -20.594914,62.55736 -6.41642,36.49458 -3.41954,109.05573 5.98407,144.87933 l 2.23665,8.5208 11.394234,-22.2202 c 42.76596,-83.39835 137.21436,-167.41477 225.64417,-200.72159 27.75785,-10.455 69.50733,-16.43669 89.25269,-12.78773 10.10374,1.86695 10.41554,2.20615 27.93155,30.37498 9.74245,15.6677 18.38292,30.54174 19.20104,33.05329 0.81813,2.51156 2.40232,5.15681 3.52038,5.87831 3.0429,1.96358 52.22036,82.71571 51.07235,83.86372 -0.54469,0.54469 -7.97413,-0.61775 -16.51012,-2.58352 -24.99423,-5.75538 -35.43899,-6.45186 -56.91285,-3.79473 -79.92816,9.89027 -170.0229,74.77687 -229.80696,165.50817 -24.93943,37.8492 -49.86388,94.8563 -45.24281,103.4789 3.86505,7.2115 31.12004,31.7393 40.69791,36.6255 5.26165,2.6844 12.48579,4.8807 16.05347,4.8807 4.61121,0 22.17581,-10.6282 60.74977,-36.7589 29.84472,-20.2174 54.58012,-36.3998 54.96773,-35.9609 0.38741,0.4389 -16.89133,54.4802 -38.39752,120.0917 l -39.10184,119.2937 -66.21363,-0.3951 c -36.41749,-0.2173 -78.54306,-1.1032 -93.61237,-1.9687 z"
         style="fill:#005253;fill-opacity:1" />
    </g>
  </g>
</svg>
